<svg width="521" height="321" viewBox="0 0 521 321" fill="none" xmlns="http://www.w3.org/2000/svg">
<g clip-path="url(#clip0_1_5)">
<path d="M292.512 0.5H290.027C294.127 6.137 298.17 11.26 302.212 15.946C311.308 26.498 321.255 35.12 331.795 41.59L332.872 42.243C343.822 48.788 356.525 53.694 370.627 56.824C381.457 59.228 393.545 60.98 407.428 62.154C409.411 62.321 411.431 62.477 413.489 62.621L422.172 63.207L435.974 64.115C443.229 64.596 450.583 65.107 457.787 65.705C473.649 67.025 487.451 69.092 499.977 72.028C512.917 75.065 525.633 79.571 537.77 85.42C548.634 90.682 558.982 96.508 571.027 103.576L575.917 106.457L584.178 111.339L593.114 116.633C597.547 119.263 601.916 121.858 606.164 124.383L717.914 191.237L717.612 208.548L598.479 137.278L590.453 132.523C584.714 129.121 578.974 125.719 573.227 122.322L564.6 117.229L562.38 115.925C552.646 110.223 541.478 103.873 529.756 98.449C517.516 92.843 504.427 88.666 490.854 86.033C478.147 83.567 464.009 81.897 447.632 80.93C442.498 80.626 437.283 80.353 432.133 80.093L419.434 79.459C413.933 79.181 408.363 78.887 402.885 78.556C386.607 77.573 372.643 75.766 360.194 73.036C346.272 69.982 333.76 65.171 323.005 58.739L322.789 58.609C312.115 52.194 302.046 43.513 292.863 32.805C285.074 23.725 277.413 13.135 269.491 0.5H267.116C275.347 13.72 283.278 24.728 291.331 34.113C300.418 44.702 310.364 53.345 320.916 59.823L321.966 60.461C332.916 67.007 345.629 71.897 359.752 74.994C372.295 77.747 386.362 79.568 402.752 80.559C409.321 80.955 416.018 81.298 422.571 81.625L431.983 82.095C437.14 82.355 442.363 82.628 447.502 82.932C463.796 83.896 477.848 85.554 490.461 88.002C503.899 90.611 516.836 94.739 528.907 100.272C540.251 105.522 550.97 111.539 563.575 118.958C574.809 125.581 586.012 132.231 597.195 138.869L597.329 138.948L717.605 210.9L717.487 217.511L708.109 222.711L589.736 151.897L584.123 148.564C577.959 144.904 571.79 141.242 565.612 137.584L555.884 131.835C545.615 125.782 533.595 118.855 520.899 113.248C508.847 107.963 495.581 104.078 481.469 101.699C468.799 99.562 454.529 98.119 437.848 97.287C434.72 97.1332 431.592 96.9845 428.464 96.841L416.134 96.272C408.454 95.912 400.67 95.52 393.043 95.032C376.97 94.003 363.057 92.113 350.51 89.257C337.047 86.187 324.867 81.497 314.289 75.311L313.189 74.659C302.508 68.239 292.407 59.614 283.164 49.021C274.741 39.37 266.536 28.069 258.078 14.474C255.218 9.876 252.366 5.189 249.543 0.5H247.19C250.22 5.54 253.287 10.589 256.364 15.534C264.886 29.224 273.153 40.609 281.64 50.339C290.757 60.795 300.718 69.368 311.263 75.842L312.37 76.512C323.327 83.063 336.003 88.008 350.048 91.21C362.68 94.09 376.696 95.994 392.898 97.032C400.526 97.52 408.308 97.912 415.982 98.272L424.875 98.683C429.165 98.88 433.452 99.078 437.732 99.29L440.475 99.433C455.894 100.273 469.215 101.665 481.12 103.674C495.072 106.026 508.18 109.866 520.077 115.084C531.809 120.263 542.982 126.595 552.714 132.305L554.852 133.563C561.13 137.268 567.404 140.981 573.673 144.702L588.686 153.613L706.059 223.83L690.862 232.255L580.969 166.516C569.699 159.806 558.418 153.113 547.127 146.437L544.614 144.957C534.506 139.019 523.703 132.934 512.054 127.978C500.099 122.93 486.728 119.219 472.313 116.952C459.62 114.955 445.733 113.606 428.608 112.704L413.945 111.941C404 111.416 393.891 110.842 384.039 110.075C368.217 108.844 354.426 106.754 341.877 103.688C328.196 100.347 315.774 95.372 304.952 88.905L304.714 88.763C293.988 82.316 283.825 73.798 274.502 63.442C265.899 53.882 257.575 42.784 249.055 29.511C242.975 20.036 236.972 10.162 231.134 0.5H228.798C230.307 2.996 231.83 5.509 233.358 8.025C236.291 12.855 239.255 17.703 242.252 22.499C242.717 23.244 243.185 23.979 243.653 24.716C243.931 25.154 244.209 25.591 244.486 26.031L246.408 29.077L247.376 30.597C255.949 43.958 264.339 55.141 273.022 64.787C282.21 74.993 292.208 83.442 302.758 89.918L303.932 90.63C314.923 97.199 327.532 102.249 341.406 105.639C354.067 108.731 367.962 110.837 383.889 112.076C393.754 112.844 403.866 113.419 413.814 113.944L428.509 114.71C445.523 115.601 459.345 116.944 472.007 118.935C486.261 121.177 499.475 124.842 511.279 129.827C523.77 135.141 535.338 141.8 546.117 148.166C557.423 154.846 568.698 161.547 579.953 168.242L688.848 233.386L673.657 241.818L538.458 160.937L535.03 158.954C525.379 153.385 514.659 147.375 503.287 142.648C491.435 137.721 478.042 134.054 463.478 131.747L461.723 131.475C449.966 129.681 436.988 128.342 421.153 127.288L411.59 126.661C399.698 125.873 387.586 125.015 375.837 123.851C360.315 122.313 346.689 119.95 334.177 116.628C320.696 113.048 308.348 107.936 297.475 101.437L297.217 101.282C286.449 94.811 276.207 86.427 266.771 76.362C257.952 66.952 249.463 56.126 240.818 43.261C234.008 33.125 227.416 22.665 221.009 12.391L217.188 6.252C215.992 4.32946 214.787 2.41211 213.574 0.5L211.197 0.5C212.639 2.76542 214.07 5.03812 215.489 7.318L219.328 13.484C225.763 23.804 232.377 34.297 239.159 44.384C247.866 57.344 256.421 68.254 265.311 77.737C274.584 87.631 284.631 95.922 295.193 102.402L296.449 103.163C307.479 109.757 319.999 114.94 333.663 118.569C346.277 121.92 360.007 124.301 375.639 125.85C388.638 127.138 402.061 128.051 415.147 128.909L419.829 129.214L423.362 129.452C438.852 130.531 451.577 131.901 463.164 133.732C477.556 136.008 490.797 139.631 502.518 144.503C515.133 149.746 526.992 156.616 537.443 162.67L537.447 162.672L671.616 242.937L656.422 251.355L529.717 175.556L526.293 173.563C516.651 167.965 505.942 161.926 494.587 157.186C482.803 152.266 469.459 148.522 454.927 146.057L453.295 145.784C442.078 143.936 429.517 142.424 414.087 141.064L411.809 140.866C406.681 140.428 401.597 139.986 396.559 139.525L393.877 139.277C391.641 139.068 389.416 138.853 387.198 138.633C383.877 138.303 380.559 137.955 377.242 137.589C375.615 137.409 373.988 137.222 372.362 137.029L368.276 136.537C353.042 134.629 339.603 131.955 327.188 128.36C313.906 124.514 301.638 119.255 290.723 112.733C279.807 106.198 269.38 97.908 259.744 88.071C250.729 78.868 242.054 68.351 233.224 55.92C232.012 54.2119 230.809 52.4978 229.614 50.778C223.71 42.283 217.903 33.508 212.331 24.98L207.668 17.833C203.508 11.476 199.646 5.749 195.977 0.5H193.534C197.623 6.316 201.949 12.729 206.664 19.953L210.227 25.419C216.058 34.351 222.168 43.597 228.455 52.617C229.501 54.117 230.548 55.607 231.599 57.085C240.487 69.602 249.228 80.197 258.321 89.478C267.694 99.045 277.802 107.173 288.386 113.659L289.703 114.456C300.764 121.068 313.19 126.394 326.636 130.288C339.151 133.912 352.693 136.608 368.033 138.528L369.68 138.72C373.499 139.188 377.322 139.622 381.149 140.023C383.105 140.231 385.068 140.432 387.039 140.627L390.309 140.947L395.032 141.393L396.475 141.526C400.241 141.869 404.02 142.207 407.827 142.538L413.913 143.064C430.029 144.484 443.007 146.071 454.596 148.037C468.98 150.476 482.176 154.177 493.823 159.039C506.446 164.307 518.276 171.208 528.706 177.292L528.709 177.294L654.41 252.491L639.219 260.913L520.978 190.178L516.394 187.499C507.063 182.068 496.775 176.283 485.963 171.641C474.127 166.56 461.268 162.737 446.648 159.953L445.098 159.661C433.69 157.54 421.261 155.761 405.199 153.949L399.487 153.307C387.51 151.952 374.139 150.353 361.251 148.362C346.309 146.054 333.064 143.053 320.755 139.187C307.685 135.084 295.496 129.681 284.529 123.124L284.255 122.96L282.903 122.12L282.677 121.981C281.918 121.515 281.16 121.049 280.405 120.565C272.669 115.592 265.166 109.815 258.024 103.33C257.87 103.19 257.714 103.05 257.558 102.912C257.35 102.728 257.144 102.542 256.939 102.354L256.694 102.122C255.541 101.054 254.401 99.9718 253.276 98.875C244.066 89.891 235.194 79.699 226.151 67.713L224.644 65.706C217.375 55.986 210.294 45.906 202.115 34.043L200.02 31.007C191.451 18.619 184.439 9.047 177.667 0.5H175.01L175.361 0.94C182.3 9.652 189.46 19.403 198.281 32.152L202.885 38.822C210.595 49.962 217.4 59.57 224.459 68.926C233.564 80.992 242.502 91.258 251.783 100.314C253.752 102.228 255.763 104.098 257.816 105.921C258.013 106.096 258.209 106.273 258.405 106.451C258.699 106.717 258.993 106.983 259.291 107.242L260.215 108.026C266.318 113.282 272.659 118.036 279.182 122.221C280.157 122.844 281.139 123.455 282.128 124.056L282.235 124.121L283.406 124.849C294.51 131.486 306.842 136.953 320.062 141.101C332.465 144.998 345.807 148.022 360.85 150.345C372.649 152.169 384.841 153.663 396.003 154.942L405.968 156.068C422.205 157.917 434.682 159.736 446.178 161.925C460.644 164.677 473.368 168.458 485.078 173.486C497.615 178.869 509.439 185.8 519.865 191.913L637.075 262.031L621.884 270.452L512.24 204.8L508.656 202.691C497.995 196.431 488.103 190.762 477.627 185.533C464.968 180.447 451.908 176.42 438.582 173.495L437.063 173.165C426.389 170.869 414.763 168.835 399.952 166.675L391.135 165.407C379.721 163.755 367.04 161.828 354.619 159.52C339.963 156.795 326.91 153.466 314.715 149.344C301.829 144.987 289.716 139.445 278.712 132.868L278.46 132.716C278.073 132.483 277.687 132.241 277.301 132L276.689 131.619L275.257 130.738C275.019 130.59 274.781 130.44 274.544 130.289C268.435 126.38 262.56 122.118 256.949 117.523L254.705 115.677C254.484 115.49 254.265 115.301 254.048 115.11C253.896 114.977 253.744 114.844 253.59 114.712C251.418 112.858 249.286 110.958 247.197 109.011C237.824 100.258 228.756 90.389 219.477 78.84C211.23 68.577 203.101 57.71 195.48 47.366L193.855 45.159C183.674 31.313 175.685 21.078 167.949 11.972C164.609 8.04077 161.146 4.21491 157.567 0.5L154.775 0.5C158.814 4.63 162.705 8.895 166.427 13.273L167.906 15.023C174.825 23.261 182.051 32.533 190.961 44.605L192.245 46.349C200.324 57.335 209.024 69.029 217.918 80.098C227.24 91.7 236.37 101.637 245.835 110.477C255.731 119.723 266.325 127.762 277.328 134.375L277.688 134.59C288.814 141.24 301.056 146.843 314.078 151.244C326.363 155.397 339.505 158.749 354.255 161.49C366.975 163.852 379.774 165.807 394.924 167.978L396.447 168.195C413.55 170.641 426.413 172.879 438.155 175.452C451.36 178.352 464.301 182.342 476.847 187.381C488.415 193.16 499.709 199.736 511.218 206.523L619.96 271.577L604.77 279.998L503.51 219.423L500.042 217.373C497.786 216.041 495.526 214.715 493.263 213.395L490.573 211.829L488.998 210.921L486.328 209.389C480.593 206.116 474.928 202.991 469.109 199.976L469.043 199.944C456.496 194.528 443.584 190.107 430.664 186.805L428.431 186.242C418.193 183.691 406.988 181.341 392.776 178.765L383.324 177.071C381.787 176.794 380.273 176.519 378.779 176.246L375.047 175.559L372.533 175.09L368.943 174.414L367.147 174.07L363.873 173.434L361.923 173.05L358.628 172.392L356.84 172.026L353.316 171.298C352.367 171.099 351.422 170.893 350.476 170.69L349.885 170.564C349.346 170.449 348.807 170.335 348.27 170.217C333.888 167.073 321.026 163.42 308.948 159.054C305.785 157.911 302.649 156.696 299.542 155.409C290.373 151.606 281.622 147.227 273.417 142.343L273.138 142.181C263.221 136.2 253.534 129.201 244.361 121.287L243.217 120.293L242.563 119.723C242.174 119.385 241.785 119.047 241.4 118.703C231.85 110.152 222.588 100.601 213.084 89.502C204.614 79.616 196.234 69.165 188.37 59.219L185.341 55.386C175.513 42.986 167.646 33.628 159.995 25.228C152.056 16.518 143.375 8.225 134.105 0.5H130.967C140.832 8.57 150.093 17.335 158.514 26.573L159.527 27.689C166.636 35.549 174.034 44.367 183.142 55.835L188.496 62.602C195.876 71.912 203.677 81.598 211.561 90.802C221.129 101.97 230.452 111.584 240.062 120.191C240.386 120.481 240.714 120.766 241.042 121.051L241.642 121.573L242.221 122.083C242.773 122.569 243.325 123.056 243.883 123.533L244.169 123.773C252.591 130.946 261.417 137.371 270.49 142.917L271.931 143.789L272.394 144.061C280.67 148.991 289.508 153.413 298.775 157.255C301.912 158.556 305.078 159.784 308.271 160.938C320.405 165.329 333.35 169.003 347.846 172.173L348.945 172.409L352.903 173.253L354.608 173.606C355.816 173.857 357.026 174.108 358.245 174.355L361.492 175.003L364.169 175.53L367.347 176.144L370.597 176.761L373.595 177.324L378.572 178.241L383.639 179.16L392.421 180.735C407.63 183.491 419.377 185.986 430.173 188.745C442.949 192.009 455.75 196.39 468.22 201.769L470.124 202.769L470.913 203.183C471.444 203.461 471.976 203.74 472.504 204.022L473.609 204.62C474.678 205.194 475.746 205.768 476.809 206.35L477.898 206.954L477.904 206.957C478.957 207.538 480.011 208.119 481.063 208.708L482.671 209.618C483.548 210.111 484.424 210.604 485.299 211.103L488.341 212.851L490.42 214.053C494.432 216.382 498.442 218.751 502.477 221.144L602.743 281.125L587.553 289.547L494.774 234.046C483.911 227.543 472.321 220.663 460.511 214.286C448.668 208.775 436.085 203.828 423.065 199.567C410.772 196.255 397.561 193.087 382.678 189.885L377.754 188.823C366.185 186.319 354.075 183.626 342.112 180.612C328.009 177.061 315.329 173.098 303.35 168.495C290.781 163.666 278.804 157.87 267.754 151.265C256.747 144.71 245.957 136.887 235.764 128.121C226.073 119.786 216.622 110.541 206.867 99.858C198.554 90.755 190.526 81.442 182.933 72.528L177.682 66.359C168.635 55.77 160.334 46.456 152.336 37.924C142.574 28.529 132.421 19.816 122.113 11.993C116.271 8.086 110.405 4.353 104.161 0.5H100.319C107.612 4.962 114.315 9.196 120.943 13.63C131.174 21.396 141.267 30.057 150.905 39.336L152.68 41.236C160.395 49.53 168.434 58.597 177.162 68.849L183.042 75.759C190.974 85.049 198.059 93.191 205.383 101.214C215.216 111.978 224.724 121.279 234.453 129.646C239.51 133.997 244.747 138.136 250.149 142.052C250.902 142.597 251.659 143.129 252.417 143.662L252.795 143.928L254.098 144.851C254.985 145.465 255.877 146.064 256.769 146.662L256.911 146.757L258.19 147.622L259.12 148.225L260.051 148.825L260.458 149.088C261.131 149.525 261.805 149.961 262.482 150.387L262.918 150.655C264.031 151.353 265.146 152.046 266.267 152.72L266.72 152.991C277.889 159.66 289.969 165.508 302.624 170.371C314.656 174.997 327.411 178.984 341.615 182.558C354.404 185.778 367.643 188.698 379.353 191.225L382.247 191.849C397.096 195.043 410.274 198.202 422.483 201.492C435.39 205.715 447.888 210.628 459.632 216.094C470.715 222.083 481.52 228.466 491.702 234.56L585.514 290.682L570.323 299.103L486.023 248.674C475.74 242.519 465.634 236.502 455.359 230.698L451.885 228.748C440.127 222.928 427.775 217.608 415.13 212.919C403.431 209.165 391.082 205.602 377.434 202.041L369.177 199.9C358.218 197.053 347.027 194.102 335.986 190.927C322.079 186.928 309.584 182.651 297.785 177.852C285.851 172.995 274.413 167.36 263.763 161.09L261.885 159.974C251 153.432 240.331 145.857 230.169 137.455C220.362 129.35 210.722 120.413 200.697 110.132L198.819 108.201C191.019 100.155 183.485 92.058 174.805 82.664L172.699 80.384C162.71 69.565 153.449 60.028 144.354 51.199C134.387 42.329 124.012 33.999 113.474 26.409C103.183 19.739 92.564 13.307 82.464 7.255L71.17 0.5H67.26L79.272 7.686C89.895 14.042 101.204 20.85 112.338 28.064C122.775 35.584 133.098 43.871 142.985 52.668C152.016 61.439 161.252 70.95 171.222 81.745L175.787 86.685C183.16 94.654 191.186 103.262 199.258 111.533C209.337 121.867 219.029 130.853 228.885 139.002C239.123 147.465 249.868 155.094 260.832 161.684L261.344 161.991C272.471 168.642 284.476 174.603 297.024 179.711C308.887 184.539 321.448 188.84 335.425 192.854C348.818 196.7 362.84 200.333 375.209 203.537L378.377 204.364C391.472 207.807 403.32 211.237 414.468 214.814C427.01 219.466 439.297 224.757 450.946 230.521C462.382 236.904 473.573 243.563 484.984 250.393L568.296 300.23L553.108 308.649L469.733 258.779C460.784 253.44 452.723 248.67 444.423 243.894L443.256 243.225C431.482 237.06 419.439 231.425 407.161 226.337C395.004 221.839 382.07 217.486 368.721 213.397L356.038 209.52C352.816 208.533 349.573 207.535 346.327 206.528C340.817 204.823 335.318 203.082 329.83 201.305C316.078 196.841 303.765 192.252 292.189 187.276C279.86 181.979 268.012 175.946 256.967 169.346C245.951 162.771 235.015 155.179 224.544 146.858L223.659 146.149L222.774 145.434C214.329 138.636 205.887 131.242 197.106 122.947L195.366 121.3L194.491 120.467C187.881 114.134 181.261 107.611 174.77 101.176L165.643 92.116C155.812 82.36 145.962 73.091 136.338 64.538C126.186 56.1825 115.674 48.2756 104.83 40.84L103.484 40.002C94.177 34.173 84.764 28.488 75.169 22.742L37.99 0.5H34.094L70.601 22.338C78.509 27.068 86.283 31.736 93.961 36.448L96.884 38.253L99.798 40.063C100.215 40.323 100.634 40.583 101.052 40.841C101.946 41.395 102.841 41.95 103.731 42.509C114.504 49.8981 124.949 57.7546 135.036 66.056C144.609 74.562 154.432 83.807 164.232 93.534L173.435 102.67C179.907 109.087 186.509 115.593 193.106 121.91L194.134 122.886L195.158 123.855C203.797 132.044 212.11 139.366 220.418 146.101L221.665 147.107L222.339 147.651C222.659 147.909 222.978 148.168 223.298 148.422C233.335 156.403 243.769 163.721 254.42 170.15L255.946 171.064C267.064 177.709 278.995 183.783 291.403 189.116C303.037 194.116 315.407 198.727 329.217 203.21C331.961 204.1 334.722 204.983 337.491 205.859C338.97 206.326 340.453 206.786 341.934 207.248L343.168 207.635C343.992 207.894 344.817 208.153 345.642 208.409C349.048 209.466 352.451 210.513 355.831 211.548L368.14 215.311C381.453 219.389 394.35 223.729 406.436 228.2C418.633 233.26 430.6 238.859 442.3 244.98C452.292 250.715 462.075 256.529 472.686 262.875L551.075 309.767L535.881 318.192L458.451 271.875C450.519 267.13 442.57 262.416 434.602 257.732C422.996 251.344 411.158 245.389 399.111 239.879C387.323 234.968 375.061 230.224 361.612 225.37L348.596 220.828C340.27 217.916 331.824 214.941 323.527 211.927C309.96 206.995 297.829 202.094 286.441 196.945C274.237 191.426 262.448 185.28 251.4 178.678C240.113 171.904 229.217 164.502 218.761 156.505C208.83 148.917 198.813 140.589 188.134 131.047C180.087 123.856 171.999 116.452 164.117 109.217L158.468 104.03C147.98 94.594 138.101 86.091 128.24 78.014C117.829 70.0561 107.128 62.4844 96.16 55.314L93.166 53.483C82.682 47.08 72.182 40.799 62.823 35.204L4.80699 0.5H0.911987L72.92 43.58C80.3317 48.0184 87.7218 52.4928 95.09 57.003C106 64.1355 116.644 71.6666 127.001 79.581C136.809 87.617 146.666 96.1 157.124 105.509L159.889 108.049C168.677 116.118 177.763 124.46 186.803 132.538C197.519 142.114 207.576 150.473 217.547 158.094C227.443 165.657 237.666 172.663 247.972 178.943L250.374 180.394C261.487 187.035 273.344 193.216 285.617 198.766C297.052 203.936 309.23 208.857 322.845 213.806C331.151 216.823 339.603 219.801 347.934 222.714L360.943 227.254C374.351 232.093 386.585 236.826 398.311 241.711C410.294 247.193 422.07 253.117 433.615 259.47L436.6 261.225C444.232 265.726 451.849 270.251 459.452 274.801L535.843 320.5L553.06 310.954L553.068 310.959L572.31 300.292L572.307 300.29L589.52 290.747L589.516 290.745L606.757 281.187L606.754 281.185L623.966 271.642L623.965 271.641L639.158 263.217L639.173 263.226L658.416 252.557L658.399 252.546L673.599 244.123L673.611 244.13L692.853 233.451L692.842 233.444L708.056 225.01L708.071 225.019L719.466 218.7L719.624 209.751L719.592 209.732L719.894 192.407L719.914 192.419L720.298 170.468L720.28 170.458L720.584 153.111L720.601 153.122L720.984 131.171L720.979 131.168L721.281 113.835L721.285 113.837L721.667 91.887L721.656 91.88L722 72.245L602.072 0.5H598.178L719.98 73.367L719.677 90.697L617.142 29.356L610.093 25.249L602.453 20.788C598.214 18.312 593.974 15.835 589.728 13.364L583.054 9.492L580.745 8.165C576.211 5.56414 571.651 3.00901 567.066 0.5L562.864 0.5C568.832 3.715 575.149 7.249 582.048 11.226C586.436 13.7677 590.819 16.3174 595.198 18.875L602.731 23.275C607.196 25.883 611.659 28.491 616.116 31.081L719.648 93.018L719.346 110.346L608.401 43.974L589.235 32.869C584.243 29.9775 579.24 27.1035 574.228 24.247C561.624 17.125 550.063 11.216 538.881 6.18C534.453 4.19982 529.987 2.30613 525.486 0.5L520.021 0.5C526.097 2.84553 532.11 5.34837 538.056 8.006C549.181 13.016 560.689 18.898 573.238 25.99C579.168 29.3705 585.085 32.7739 590.989 36.2L603.866 43.664L607.383 45.698L719.301 112.651L718.999 129.985L599.657 58.589L587.136 51.383C579.96 47.256 572.646 43.081 565.354 39.051C552.933 32.224 541.169 26.63 529.392 21.946C527.876 21.346 526.346 20.756 524.803 20.176C513.997 16.109 502.521 12.506 490.614 9.442C481.523 7.118 472.261 5.05 463.202 3.147C460.181 2.512 457.182 1.894 454.22 1.293L450.3 0.5H440.447C442.954 1.04 445.544 1.58 448.228 2.123L449.418 2.363C462.524 4.991 476.528 7.903 490.117 11.378C491.802 11.8121 493.484 12.2582 495.163 12.716C506.87 15.913 518.115 19.636 528.655 23.806C540.375 28.468 552.063 34.028 564.39 40.802C570.83 44.364 577.29 48.039 583.656 51.692L598.639 60.314L718.964 132.297L718.662 149.632L624.693 93.415L614.271 87.239C609.47 84.39 604.662 81.543 599.849 78.696C598.647 77.985 597.447 77.273 596.247 76.561C594.445 75.4909 592.642 74.4233 590.837 73.358L587.233 71.238C577.539 65.548 567.195 59.596 556.468 53.892C544.146 47.367 532.152 42.135 519.798 37.903C507.398 33.673 493.898 30.21 479.672 27.605C466.657 25.222 453.326 23.323 440.351 21.511L437.364 21.094C420.986 18.81 407.875 16.283 396.097 13.144C384.335 10.011 373.496 5.764 363.804 0.5H359.702C370.315 6.661 382.375 11.565 395.575 15.083C407.434 18.243 420.622 20.783 437.08 23.079L443.058 23.914C455.064 25.599 467.326 27.384 479.306 29.576C493.433 32.163 506.839 35.603 519.145 39.799C531.395 43.999 543.295 49.187 555.523 55.665C567.555 62.06 579.115 68.779 589.816 75.085L598.838 80.421C603.645 83.265 608.451 86.111 613.248 88.958L622.451 94.42L718.604 151.937L718.3 169.274L627.212 114.781L626.207 114.181L615.918 108.025L615.054 107.512C607.846 103.234 600.636 98.956 593.415 94.684L582.074 87.987L578.43 85.848C568.634 80.115 558.217 74.181 547.549 68.748C535.324 62.568 522.73 57.598 510.114 53.976C497.564 50.391 484.015 47.724 468.694 45.824C457.963 44.493 446.91 43.416 436.121 42.391L425.176 41.353C408.632 39.767 395.26 37.683 383.093 34.791C369.691 31.603 357.552 26.861 346.992 20.684L345.903 20.038C337.306 14.871 329.064 8.318 321.325 0.5H318.527C326.513 8.78 335.044 15.724 343.962 21.199L345.071 21.871C356.014 28.417 368.653 33.42 382.638 36.741C394.894 39.653 408.352 41.752 424.992 43.347L439.524 44.728C449.153 45.65 458.936 46.632 468.455 47.813C483.67 49.699 497.12 52.347 509.571 55.903C522.06 59.487 534.537 64.412 546.652 70.536C557.271 75.945 567.66 81.861 577.431 87.58L581.127 89.75C591.357 95.783 601.561 101.834 611.749 107.878L718.278 171.59L717.974 188.929L607.122 122.614C602.263 119.729 597.399 116.844 592.531 113.96L573.346 102.615L570.762 101.099C559.248 94.36 549.22 88.745 538.65 83.619C526.362 77.699 513.506 73.144 500.442 70.082C487.818 67.123 473.923 65.04 457.961 63.714C450.728 63.112 443.35 62.599 436.072 62.117L422.279 61.21L413.619 60.626C411.613 60.4856 409.608 60.3309 407.604 60.162C393.811 58.996 381.81 57.257 371.068 54.872C357.542 51.87 345.331 47.215 334.761 41.032L333.722 40.416C323.037 33.994 312.948 25.322 303.734 14.64C300.011 10.323 296.285 5.63 292.512 0.5V0.5Z" fill="url(#paint0_linear_1_5)"/>
</g>
<defs>
<linearGradient id="paint0_linear_1_5" x1="-4.14001" y1="43.62" x2="303.145" y2="392.413" gradientUnits="userSpaceOnUse">
<stop stop-color="#265FDF" stop-opacity="0.01"/>
<stop offset="0.538" stop-color="#265FDF" stop-opacity="0.32"/>
<stop offset="1" stop-color="#265FDF" stop-opacity="0.01"/>
</linearGradient>
<clipPath id="clip0_1_5">
<rect width="722" height="320" fill="white" transform="translate(0 0.5)"/>
</clipPath>
</defs>
</svg>
