<svg width="564" height="553" viewBox="0 0 564 553" fill="none" xmlns="http://www.w3.org/2000/svg">
<g clip-path="url(#clip0_1_9)">
<path fill-rule="evenodd" clip-rule="evenodd" d="M151.631 23.454C170.656 9.46703 192.385 2.55203 218.788 2.55203C237.653 2.55203 258.908 6.08603 283.249 13.094C299.104 17.66 313.523 21.542 326.531 25.002C323.414 24.272 320.215 23.528 316.927 22.764C303.138 19.559 287.508 15.924 269.986 11.433C153.37 -18.463 125.867 40.956 75.939 148.822L75.936 148.828C73.3724 154.372 70.8021 159.914 68.225 165.452C38.751 228.731 24.609 265.211 23.961 301.379C23.302 338.117 36.212 373.69 71.594 432.632C106.985 491.589 131.784 518.824 163.095 533.116C164.057 533.555 165.025 533.981 166 534.395C156.27 531.923 147.439 528.77 139.084 524.762C106.331 509.052 81.204 480.78 46.37 420.447C11.536 360.114 -0.38497 324.217 2.38603 287.998C5.11803 252.285 22.468 216.785 57.912 155.395C61.0246 149.999 64.1302 144.599 67.229 139.195L67.233 139.188C97.02 87.296 120.548 46.308 151.631 23.454V23.454ZM186.138 538.388C184.418 538.13 182.701 537.853 180.987 537.558C175.023 535.856 169.38 533.786 163.925 531.296C133.027 517.192 108.466 490.172 73.309 431.603C38.142 373.019 25.309 337.735 25.96 301.416C26.602 265.607 40.685 229.315 70.038 166.296C72.551 160.901 74.998 155.613 77.394 150.439L77.751 149.668L77.753 149.663C102.404 96.407 121.875 54.343 149.231 30.03C167.549 13.748 189.296 5.77003 216.819 5.77003C232.386 5.77003 249.804 8.32403 269.489 13.37C284.195 17.14 297.565 20.305 309.633 23.12C306.836 22.562 303.968 21.995 301.024 21.413H301.021L301.018 21.412L300.965 21.402H300.964C288.141 18.867 273.61 15.995 257.3 12.358C148.495 -11.904 126.33 48.77 86.092 158.92L86.088 158.931L86.072 158.973C84.0111 164.621 81.9441 170.266 79.871 175.909C56.106 240.513 45.024 277.618 46.321 313.753C47.638 350.457 61.359 385.352 96.945 442.5C132.486 499.577 156.681 525.593 186.138 538.388V538.388ZM202.736 540.393C200.017 540.136 197.3 539.847 194.588 539.524C192.051 538.653 189.55 537.685 187.088 536.62C158.351 524.192 133.553 497.506 98.643 441.444C63.262 384.624 49.623 349.997 48.32 313.682C47.035 277.88 58.076 240.953 81.748 176.599C83.688 171.323 85.579 166.15 87.431 161.082L87.438 161.065L87.445 161.044L87.967 159.617C107.829 105.245 123.517 62.3 147.375 36.706C172.358 9.90303 206.126 2.99403 256.864 14.31C270.513 17.353 282.912 19.86 294.107 22.083C291.576 21.672 288.983 21.255 286.322 20.828L286.251 20.817H286.248C274.342 18.903 260.851 16.735 245.688 13.891C144.349 -5.11798 127.156 56.56 95.945 168.53L95.942 168.539C94.3412 174.29 92.7342 180.039 91.121 185.787C72.671 251.439 64.432 289.021 67.513 325.031C70.603 361.14 85.53 396.496 120.753 451.136C154.235 503.074 177.086 528.124 202.736 540.393V540.393ZM218.563 541.593C215.343 541.404 212.125 541.182 208.91 540.929L208.646 540.822C181.609 529.8 157.437 504.351 122.434 450.052C86.95 395.008 72.605 361.077 69.506 324.862C66.451 289.157 74.663 251.743 93.047 186.328C94.5512 180.967 96.0502 175.605 97.544 170.241L97.869 169.076L97.871 169.07C113.273 113.815 125.439 70.17 146.018 43.462C162.141 22.537 183.365 12.51 212.819 12.51C222.688 12.51 233.486 13.637 245.319 15.857C257.955 18.227 269.425 20.127 279.786 21.801C277.509 21.521 275.178 21.239 272.789 20.951H272.788L272.787 20.95H272.786C261.732 19.612 249.202 18.095 235.098 15.98C140.894 1.85803 128.323 64.294 105.504 177.63L105.501 177.644L105.454 177.879L105.452 177.887C104.298 183.628 103.139 189.368 101.973 195.107C88.46 261.547 82.858 299.468 87.573 335.27C92.3 371.168 107.862 405.75 143.079 458.615C174.464 505.726 196.035 529.695 218.563 541.593V541.593ZM234.102 542.312C230.622 542.191 227.143 542.044 223.665 541.871C200.117 530.963 177.432 506.573 144.743 457.505C109.257 404.237 94.3 371.037 89.556 335.008C85.828 306.707 87.03 278.614 103.933 195.505C105.143 189.555 106.316 183.732 107.462 178.039C118.722 122.112 127.616 77.937 145.128 50.271C163.422 21.37 191.079 11.408 234.801 17.958C246.509 19.713 257.127 21.057 266.718 22.228C264.646 22.061 262.525 21.894 260.352 21.723H260.35L260.332 21.721C250.111 20.918 238.528 20.007 225.468 18.575C138.08 8.99903 129.798 71.963 114.763 186.267L114.761 186.281L114.714 186.641C113.974 192.264 113.218 198.013 112.434 203.885C103.497 270.878 100.336 309.01 106.538 344.524C112.759 380.136 128.864 413.915 163.981 465.004C193.525 507.985 213.962 530.802 234.102 542.312ZM288.757 542.968C286.435 542.974 284.077 542.977 281.684 542.977C265.861 542.977 251.605 542.842 238.647 542.458C217.724 531.759 196.327 508.53 165.629 463.871C130.236 412.381 114.755 379.941 108.509 344.18C103.602 316.089 103.235 287.97 114.416 204.15C115.202 198.263 115.96 192.5 116.702 186.863V186.862L116.744 186.542C124.162 130.142 130.022 85.594 144.667 57.115C157.815 31.545 178.052 19.633 209.223 19.633C214.272 19.633 219.611 19.945 225.25 20.563C238.299 21.993 249.867 22.904 260.079 23.708H260.08L260.194 23.717H260.195C319.721 28.399 339.774 29.977 397.121 113.404C433.124 165.781 451.952 196.716 461.574 230.853C471.339 265.493 471.713 302.783 462.954 368.442C454.314 433.208 444.309 466.852 427.271 488.436C410.306 509.927 386.003 520.54 341.211 534.896C339.55 535.428 337.915 535.948 336.306 536.456C332.894 537.296 329.479 538.124 326.061 538.938C322.282 539.607 318.499 540.26 314.714 540.896C310.555 541.366 306.395 541.822 302.233 542.263C297.742 542.512 293.25 542.747 288.757 542.968V542.968ZM315.937 544.677C366.385 543.638 398.155 539.513 425.148 526.565C458.307 510.661 483.67 482.171 518.729 421.447C553.789 360.723 565.78 324.513 562.975 287.844C560.213 251.748 542.785 216.052 507.187 154.395C450.238 55.755 420.977 47.991 334.119 24.947L334.063 24.933C319.289 21.013 302.547 16.57 283.802 11.173C159.031 -24.754 125.808 33.124 65.497 138.194L65.495 138.197C62.397 143.6 59.2917 148.999 56.179 154.394C20.581 216.052 3.15403 251.747 0.39203 287.844C-2.41397 324.513 9.57803 360.723 44.637 421.447C79.697 482.171 105.06 510.661 138.219 526.565C150.812 532.605 164.443 536.725 180.526 539.508C187.432 541.474 194.756 542.951 202.698 544.016C209.14 545.644 215.939 546.764 223.281 547.445C229.28 548.759 235.578 549.55 242.352 549.878C247.955 550.906 253.807 551.395 260.074 551.395L260.388 551.394C264.058 551.899 267.804 552.136 271.638 552.136C285.104 552.136 299.665 549.21 315.937 544.677V544.677ZM334.133 542.126C376.56 538.608 403.888 532.831 426.837 519.294C456.483 501.807 478.299 472.13 507.332 409.796C536.359 347.478 545.48 310.75 540.985 274.283C536.56 238.382 518.682 203.58 482.755 143.727C442.816 77.192 417.448 53.815 378.516 39.427C432.36 56.29 460.044 76.737 505.455 155.395C540.898 216.785 558.248 252.286 560.98 287.998C563.752 324.217 551.831 360.114 516.997 420.447C482.163 480.78 457.035 509.052 424.283 524.762C400.987 535.937 373.983 540.468 334.133 542.126V542.126ZM428.016 511.941C407.6 526.593 382.749 533.681 343.863 539.243C380.421 535.672 405.003 529.851 425.82 517.572C455.076 500.315 476.677 470.875 505.52 408.953C534.369 347.013 543.444 310.58 538.999 274.528C534.618 238.985 516.82 204.362 481.04 144.756C435.333 68.61 408.855 49.422 358.787 35.191C395.161 47.706 419.675 69.888 459.75 134.247C495.888 192.282 514.132 226.171 520.076 261.8C526.111 297.985 519.655 335.091 496.252 398.709C472.84 462.355 454.346 493.043 428.016 511.941V511.941ZM352.919 535.853C388.296 528.43 410.736 520.149 428.72 504.539C451.926 484.396 467.313 452.859 485.49 388.176C503.657 323.532 507.648 286.177 500.212 250.346C492.889 215.061 474.356 182.101 438.12 125.892C398.011 63.673 374.336 42.653 340.365 31.882C386.878 43.679 412.189 61.651 458.053 135.305C494.048 193.111 512.215 226.833 518.103 262.129C524.075 297.933 517.644 334.763 494.375 398.018C471.415 460.434 452.483 491.918 426.85 510.316C408.417 523.544 386.199 530.533 352.919 535.853V535.853ZM428.984 497.111C412.586 514.291 390.345 523.736 362.031 531.802C391.662 524.95 411.39 516.933 427.409 503.029C449.992 483.426 465.736 451.073 483.565 387.635C501.636 323.334 505.617 286.235 498.253 250.753C490.995 215.778 472.537 182.973 436.439 126.976C390.582 55.84 366.403 39.013 323.293 29.461C354.956 38.617 377.801 58.526 417.811 118.588C454.041 172.973 472.792 204.992 481.364 239.866C490.067 275.277 488.356 312.764 475.051 378.181C461.737 443.644 449.251 475.877 428.984 497.111V497.111ZM369.222 527.525C394.773 518.112 414.686 507.608 428.842 489.675C446.348 467.497 456.132 434.711 464.936 368.705C473.735 302.749 473.346 265.24 463.499 230.31C458.652 213.114 451.176 195.902 439.969 176.14C429.397 157.497 415.853 137.125 398.769 112.271C358.915 54.291 336.881 35.472 307.361 27.828C347.307 35.305 370.392 51.011 416.147 119.696C452.245 173.884 470.921 205.759 479.422 240.344C488.048 275.436 486.332 312.686 473.092 377.783C460.03 441.999 447.258 475.069 427.537 495.73C413.596 510.337 395.957 519.278 369.222 527.525V527.525Z" fill="url(#paint0_linear_1_9)"/>
</g>
<defs>
<linearGradient id="paint0_linear_1_9" x1="-3.76597" y1="300.704" x2="284.352" y2="578.421" gradientUnits="userSpaceOnUse">
<stop stop-color="#265FDF" stop-opacity="0.01"/>
<stop offset="1" stop-color="#265FDF" stop-opacity="0.32"/>
</linearGradient>
<clipPath id="clip0_1_9">
<rect width="564" height="552" fill="white" transform="translate(0 0.5)"/>
</clipPath>
</defs>
</svg>
